<?xml version="1.0" encoding="utf-8"?>
<!-- Svg Vector Icons : http://www.onlinewebfonts.com/icon -->
<!DOCTYPE svg PUBLIC "-//W3C//DTD SVG 1.1//EN" "http://www.w3.org/Graphics/SVG/1.1/DTD/svg11.dtd">
<svg version="1.1" xmlns="http://www.w3.org/2000/svg" xmlns:xlink="http://www.w3.org/1999/xlink" x="0px" y="0px" viewBox="0 0 256 256" enable-background="new 0 0 256 256" xml:space="preserve">
<metadata> Svg Vector Icons : http://www.onlinewebfonts.com/icon </metadata>
<g><g><g><path fill="#000000" d="M220.1,67.6H107.9v-8.6C107.9,44.6,96.3,33,82,33H36C21.7,33,10,44.6,10,58.9v149.6l0,2.9c0,4.9-0.1,7.7,1.8,9.6c1.7,1.8,4.2,1.9,7.6,1.9l200.7,0c14.3,0,25.9-11.6,25.9-25.9V93.5C246,79.2,234.4,67.6,220.1,67.6z M82.5,156.5v14.9H48.4v-14.9H82.5z M48.4,152.2v-14.9h34.1v14.9H48.4z M82.5,175.7v14.9H48.4v-14.9H82.5z M116.5,171.4v-14.9h34.1v14.9H116.5z M150.6,175.7v14.9h-34.1v-14.9H150.6z M149.5,131.3h-48.6v31.2h11.5v2.9h-11.5h-2.9H86.5v-2.9h11.5v-31.2v-2.9h2.9h48.6V131.3z M150.6,137.3v-14.9h34.1v14.8L150.6,137.3L150.6,137.3z M240.3,197.1c0,11.1-9,20.1-20.2,20.1H216c2.5-2.1,4.1-5.2,4.1-8.6V105c0-6.3-5.2-11.5-11.5-11.5H93.5C87.2,93.5,82,88.3,82,82V70.4c0-6.3-5.2-11.5-11.5-11.5h-46c-3.5,0-6.5,1.7-8.6,4.1v-4.1c0-11.1,9-20.2,20.2-20.2h46c11.1,0,20.2,9.1,20.2,20.2v14.4h118c11.1,0,20.2,9,20.2,20.2L240.3,197.1L240.3,197.1L240.3,197.1z"/></g><g></g><g></g><g></g><g></g><g></g><g></g><g></g><g></g><g></g><g></g><g></g><g></g><g></g><g></g><g></g></g></g>
</svg>